<?xml version="1.0" encoding="UTF-8" standalone="no"?>
<!DOCTYPE svg PUBLIC "-//W3C//DTD SVG 1.1//EN"
 "http://www.w3.org/Graphics/SVG/1.1/DTD/svg11.dtd">
<!-- Generated by graphviz version 2.47.0 (20210316.0004)
 -->
<!-- Title: dependencies Pages: 1 -->
<svg width="1816pt" height="284pt"
 viewBox="0.00 0.00 1816.00 284.00" xmlns="http://www.w3.org/2000/svg" xmlns:xlink="http://www.w3.org/1999/xlink">
<g id="graph0" class="graph" transform="scale(1 1) rotate(0) translate(4 280)">
<title>dependencies</title>
<polygon fill="white" stroke="transparent" points="-4,4 -4,-280 1812,-280 1812,4 -4,4"/>
<text text-anchor="start" x="883.01" y="-42.4" font-family="sans-serif" font-weight="bold" font-size="14.00">Legend</text>
<polygon fill="#ffffb3" stroke="transparent" points="670,-10 670,-30 690,-30 690,-10 670,-10"/>
<text text-anchor="start" x="693.63" y="-15.4" font-family="sans-serif" font-size="14.00"> &#160;Declarations</text>
<polygon fill="#8dd3c7" stroke="transparent" points="783,-10 783,-30 803,-30 803,-10 783,-10"/>
<text text-anchor="start" x="806.73" y="-15.4" font-family="sans-serif" font-size="14.00"> &#160;Module</text>
<polygon fill="#80b1d3" stroke="transparent" points="869,-10 869,-30 889,-30 889,-10 869,-10"/>
<text text-anchor="start" x="892.78" y="-15.4" font-family="sans-serif" font-size="14.00"> &#160;Bootstrap</text>
<polygon fill="#fdb462" stroke="transparent" points="966,-10 966,-30 986,-30 986,-10 966,-10"/>
<text text-anchor="start" x="989.67" y="-15.4" font-family="sans-serif" font-size="14.00"> &#160;Providers</text>
<polygon fill="#fb8072" stroke="transparent" points="1062,-10 1062,-30 1082,-30 1082,-10 1062,-10"/>
<text text-anchor="start" x="1085.73" y="-15.4" font-family="sans-serif" font-size="14.00"> &#160;Exports</text>
<g id="clust1" class="cluster">
<title>cluster_AppModule</title>
<polygon fill="none" stroke="black" stroke-dasharray="1,5" points="8,-70 8,-268 1800,-268 1800,-70 8,-70"/>
</g>
<g id="clust2" class="cluster">
<title>cluster_AppModule_declarations</title>
<polygon fill="none" stroke="black" points="168,-78 168,-130 1792,-130 1792,-78 168,-78"/>
</g>
<g id="clust14" class="cluster">
<title>cluster_AppModule_imports</title>
<polygon fill="none" stroke="black" points="16,-78 16,-130 160,-130 160,-78 16,-78"/>
</g>
<g id="clust16" class="cluster">
<title>cluster_AppModule_bootstrap</title>
<polygon fill="none" stroke="black" points="873,-208 873,-260 997,-260 997,-208 873,-208"/>
</g>
<!-- AppComponent -->
<g id="node1" class="node">
<title>AppComponent</title>
<polygon fill="#ffffb3" stroke="black" points="1783.94,-122 1678.06,-122 1678.06,-86 1783.94,-86 1783.94,-122"/>
<text text-anchor="middle" x="1731" y="-99.8" font-family="Times,serif" font-size="14.00">AppComponent</text>
</g>
<!-- AppModule -->
<g id="node12" class="node">
<title>AppModule</title>
<polygon fill="#8dd3c7" stroke="black" points="976.66,-187 973.66,-191 952.66,-191 949.66,-187 893.34,-187 893.34,-151 976.66,-151 976.66,-187"/>
<text text-anchor="middle" x="935" y="-164.8" font-family="Times,serif" font-size="14.00">AppModule</text>
</g>
<!-- AppComponent&#45;&gt;AppModule -->
<g id="edge1" class="edge">
<title>AppComponent&#45;&gt;AppModule</title>
<path fill="none" stroke="black" d="M1731,-122.25C1731,-145.02 1731,-181 1731,-181 1731,-181 986.68,-181 986.68,-181"/>
<polygon fill="black" stroke="black" points="986.68,-177.5 976.68,-181 986.68,-184.5 986.68,-177.5"/>
</g>
<!-- CadastrarComponent -->
<g id="node2" class="node">
<title>CadastrarComponent</title>
<polygon fill="#ffffb3" stroke="black" points="1660.47,-122 1525.53,-122 1525.53,-86 1660.47,-86 1660.47,-122"/>
<text text-anchor="middle" x="1593" y="-99.8" font-family="Times,serif" font-size="14.00">CadastrarComponent</text>
</g>
<!-- CadastrarComponent&#45;&gt;AppModule -->
<g id="edge2" class="edge">
<title>CadastrarComponent&#45;&gt;AppModule</title>
<path fill="none" stroke="black" d="M1593,-122.28C1593,-143.32 1593,-175 1593,-175 1593,-175 986.66,-175 986.66,-175"/>
<polygon fill="black" stroke="black" points="986.66,-171.5 976.66,-175 986.66,-178.5 986.66,-171.5"/>
</g>
<!-- EntrarComponent -->
<g id="node3" class="node">
<title>EntrarComponent</title>
<polygon fill="#ffffb3" stroke="black" points="1507.31,-122 1390.69,-122 1390.69,-86 1507.31,-86 1507.31,-122"/>
<text text-anchor="middle" x="1449" y="-99.8" font-family="Times,serif" font-size="14.00">EntrarComponent</text>
</g>
<!-- EntrarComponent&#45;&gt;AppModule -->
<g id="edge3" class="edge">
<title>EntrarComponent&#45;&gt;AppModule</title>
<path fill="none" stroke="black" d="M1449,-122.11C1449,-141.34 1449,-169 1449,-169 1449,-169 987.06,-169 987.06,-169"/>
<polygon fill="black" stroke="black" points="987.06,-165.5 977.06,-169 987.06,-172.5 987.06,-165.5"/>
</g>
<!-- InicioComponent -->
<g id="node4" class="node">
<title>InicioComponent</title>
<polygon fill="#ffffb3" stroke="black" points="1372.99,-122 1259.01,-122 1259.01,-86 1372.99,-86 1372.99,-122"/>
<text text-anchor="middle" x="1316" y="-99.8" font-family="Times,serif" font-size="14.00">InicioComponent</text>
</g>
<!-- InicioComponent&#45;&gt;AppModule -->
<g id="edge4" class="edge">
<title>InicioComponent&#45;&gt;AppModule</title>
<path fill="none" stroke="black" d="M1316,-122.02C1316,-139.37 1316,-163 1316,-163 1316,-163 986.86,-163 986.86,-163"/>
<polygon fill="black" stroke="black" points="986.86,-159.5 976.86,-163 986.86,-166.5 986.86,-159.5"/>
</g>
<!-- MenuComponent -->
<g id="node5" class="node">
<title>MenuComponent</title>
<polygon fill="#ffffb3" stroke="black" points="1240.99,-122 1127.01,-122 1127.01,-86 1240.99,-86 1240.99,-122"/>
<text text-anchor="middle" x="1184" y="-99.8" font-family="Times,serif" font-size="14.00">MenuComponent</text>
</g>
<!-- MenuComponent&#45;&gt;AppModule -->
<g id="edge5" class="edge">
<title>MenuComponent&#45;&gt;AppModule</title>
<path fill="none" stroke="black" d="M1184,-122.24C1184,-137.57 1184,-157 1184,-157 1184,-157 986.68,-157 986.68,-157"/>
<polygon fill="black" stroke="black" points="986.68,-153.5 976.68,-157 986.68,-160.5 986.68,-153.5"/>
</g>
<!-- PostagemDeletComponent -->
<g id="node6" class="node">
<title>PostagemDeletComponent</title>
<polygon fill="#ffffb3" stroke="black" points="1109.09,-122 942.91,-122 942.91,-86 1109.09,-86 1109.09,-122"/>
<text text-anchor="middle" x="1026" y="-99.8" font-family="Times,serif" font-size="14.00">PostagemDeletComponent</text>
</g>
<!-- PostagemDeletComponent&#45;&gt;AppModule -->
<g id="edge6" class="edge">
<title>PostagemDeletComponent&#45;&gt;AppModule</title>
<path fill="none" stroke="black" d="M959.89,-122.11C959.89,-122.11 959.89,-140.99 959.89,-140.99"/>
<polygon fill="black" stroke="black" points="956.39,-140.99 959.89,-150.99 963.39,-140.99 956.39,-140.99"/>
</g>
<!-- PostagemEditComponent -->
<g id="node7" class="node">
<title>PostagemEditComponent</title>
<polygon fill="#ffffb3" stroke="black" points="924.6,-122 765.4,-122 765.4,-86 924.6,-86 924.6,-122"/>
<text text-anchor="middle" x="845" y="-99.8" font-family="Times,serif" font-size="14.00">PostagemEditComponent</text>
</g>
<!-- PostagemEditComponent&#45;&gt;AppModule -->
<g id="edge7" class="edge">
<title>PostagemEditComponent&#45;&gt;AppModule</title>
<path fill="none" stroke="black" d="M908.86,-122.11C908.86,-122.11 908.86,-140.99 908.86,-140.99"/>
<polygon fill="black" stroke="black" points="905.36,-140.99 908.86,-150.99 912.36,-140.99 905.36,-140.99"/>
</g>
<!-- RodapeComponent -->
<g id="node8" class="node">
<title>RodapeComponent</title>
<polygon fill="#ffffb3" stroke="black" points="747.1,-122 622.9,-122 622.9,-86 747.1,-86 747.1,-122"/>
<text text-anchor="middle" x="685" y="-99.8" font-family="Times,serif" font-size="14.00">RodapeComponent</text>
</g>
<!-- RodapeComponent&#45;&gt;AppModule -->
<g id="edge8" class="edge">
<title>RodapeComponent&#45;&gt;AppModule</title>
<path fill="none" stroke="black" d="M685,-122.24C685,-137.57 685,-157 685,-157 685,-157 883.16,-157 883.16,-157"/>
<polygon fill="black" stroke="black" points="883.16,-160.5 893.16,-157 883.16,-153.5 883.16,-160.5"/>
</g>
<!-- TemaComponent -->
<g id="node9" class="node">
<title>TemaComponent</title>
<polygon fill="#ffffb3" stroke="black" points="604.7,-122 491.3,-122 491.3,-86 604.7,-86 604.7,-122"/>
<text text-anchor="middle" x="548" y="-99.8" font-family="Times,serif" font-size="14.00">TemaComponent</text>
</g>
<!-- TemaComponent&#45;&gt;AppModule -->
<g id="edge9" class="edge">
<title>TemaComponent&#45;&gt;AppModule</title>
<path fill="none" stroke="black" d="M548,-122.02C548,-139.37 548,-163 548,-163 548,-163 883.22,-163 883.22,-163"/>
<polygon fill="black" stroke="black" points="883.22,-166.5 893.22,-163 883.22,-159.5 883.22,-166.5"/>
</g>
<!-- TemaDeletComponent -->
<g id="node10" class="node">
<title>TemaDeletComponent</title>
<polygon fill="#ffffb3" stroke="black" points="473.52,-122 330.48,-122 330.48,-86 473.52,-86 473.52,-122"/>
<text text-anchor="middle" x="402" y="-99.8" font-family="Times,serif" font-size="14.00">TemaDeletComponent</text>
</g>
<!-- TemaDeletComponent&#45;&gt;AppModule -->
<g id="edge10" class="edge">
<title>TemaDeletComponent&#45;&gt;AppModule</title>
<path fill="none" stroke="black" d="M402,-122.11C402,-141.34 402,-169 402,-169 402,-169 883.18,-169 883.18,-169"/>
<polygon fill="black" stroke="black" points="883.18,-172.5 893.18,-169 883.18,-165.5 883.18,-172.5"/>
</g>
<!-- TemaEditComponent -->
<g id="node11" class="node">
<title>TemaEditComponent</title>
<polygon fill="#ffffb3" stroke="black" points="312.04,-122 175.96,-122 175.96,-86 312.04,-86 312.04,-122"/>
<text text-anchor="middle" x="244" y="-99.8" font-family="Times,serif" font-size="14.00">TemaEditComponent</text>
</g>
<!-- TemaEditComponent&#45;&gt;AppModule -->
<g id="edge11" class="edge">
<title>TemaEditComponent&#45;&gt;AppModule</title>
<path fill="none" stroke="black" d="M244,-122.28C244,-143.32 244,-175 244,-175 244,-175 883.33,-175 883.33,-175"/>
<polygon fill="black" stroke="black" points="883.33,-178.5 893.33,-175 883.33,-171.5 883.33,-178.5"/>
</g>
<!-- AppComponent  -->
<g id="node14" class="node">
<title>AppComponent </title>
<polygon fill="#80b1d3" stroke="black" points="989.44,-252 880.56,-252 880.56,-216 989.44,-216 989.44,-252"/>
<text text-anchor="middle" x="935" y="-229.8" font-family="Times,serif" font-size="14.00">AppComponent </text>
</g>
<!-- AppModule&#45;&gt;AppComponent  -->
<g id="edge13" class="edge">
<title>AppModule&#45;&gt;AppComponent </title>
<path fill="none" stroke="black" stroke-dasharray="1,5" d="M935,-187.11C935,-187.11 935,-205.99 935,-205.99"/>
<polygon fill="black" stroke="black" points="931.5,-205.99 935,-215.99 938.5,-205.99 931.5,-205.99"/>
</g>
<!-- AppRoutingModule -->
<g id="node13" class="node">
<title>AppRoutingModule</title>
<polygon fill="#8dd3c7" stroke="black" points="152.27,-122 149.27,-126 128.27,-126 125.27,-122 23.73,-122 23.73,-86 152.27,-86 152.27,-122"/>
<text text-anchor="middle" x="88" y="-99.8" font-family="Times,serif" font-size="14.00">AppRoutingModule</text>
</g>
<!-- AppRoutingModule&#45;&gt;AppModule -->
<g id="edge12" class="edge">
<title>AppRoutingModule&#45;&gt;AppModule</title>
<path fill="none" stroke="black" d="M88,-122.25C88,-145.02 88,-181 88,-181 88,-181 883.29,-181 883.29,-181"/>
<polygon fill="black" stroke="black" points="883.29,-184.5 893.29,-181 883.29,-177.5 883.29,-184.5"/>
</g>
</g>
</svg>
